# xmcd
#
# Track frame offsets:
#	150
#	17430
#	36729
#	51261
#	68773
#	85098
#	102327
#	118036
#	134724
#	151613
#	163675
#	180350
#	193384
#	215871
#	226678
#	238308
#	250310
#	263477
#	274011
#	283821
#	293308
#	303430
#	325354
#
# Disc length: 4637 seconds
#
# Revision: 0
# Processed by: cddbd v1.5.2PL0 Copyright (c) Steve Scherf et al.
# Submitted via: dBpowerAMP V4.0
#
DISCID=51121b17
DTITLE=The Blasters - Testament
DYEAR=1900
DGENRE=Rock
TTITLE0=01.Trouble Bound
TTITLE1=02.Just Another Sunday
TTITLE2=03.Hey, Girl
TTITLE3=04.Dark Night
TTITLE4=05.Little Honey
TTITLE5=06.Samson And Delilah
TTITLE6=07.Colored Lights
TTITLE7=08.Help You Dream
TTITLE8=09.Common Man
TTITLE9=10.Rock And Roll Will Stand
TTITLE10=11.Can´t Stop Time
TTITLE11=12.Cry For Me
TTITLE12=13.Kathleen
TTITLE13=14.High School Confidential
TTITLE14=15.What Will Lucy Do
TTITLE15=16.Crazy Baby
TTITLE16=17.Got Love If You Want It
TTITLE17=18.Rock Boppin´Baby
TTITLE18=19.Keep A Knockin
TTITLE19=20.I Don´t Want To
TTITLE20=21.Go, Go, Go
TTITLE21=22.Rollém Pete
TTITLE22=23.Take Out Same Insurance
EXTD=
EXTT0=
EXTT1=
EXTT2=
EXTT3=
EXTT4=
EXTT5=
EXTT6=
EXTT7=
EXTT8=
EXTT9=
EXTT10=
EXTT11=
EXTT12=
EXTT13=
EXTT14=
EXTT15=
EXTT16=
EXTT17=
EXTT18=
EXTT19=
EXTT20=
EXTT21=
EXTT22=
PLAYORDER=
